<?xml version="1.0" standalone="no"?>
<!DOCTYPE svg PUBLIC "-//W3C//DTD SVG 20010904//EN"
 "http://www.w3.org/TR/2001/REC-SVG-20010904/DTD/svg10.dtd">
<svg version="1.0" xmlns="http://www.w3.org/2000/svg"
 width="729.000000pt" height="803.000000pt" viewBox="0 0 729.000000 803.000000"
 preserveAspectRatio="xMidYMid meet">

<g transform="translate(0.000000,803.000000) scale(0.100000,-0.100000)"
fill="#000000" stroke="none">
<path d="M0 5161 l0 -2868 41 -129 c60 -190 126 -304 175 -304 27 0 72 52 102
118 94 203 194 696 262 1297 87 760 229 1227 397 1314 33 17 79 13 123 -9 154
-78 312 -539 415 -1205 60 -390 103 -596 171 -805 65 -203 135 -335 204 -383
112 -78 226 91 300 446 24 115 56 322 65 422 4 39 15 138 26 220 112 851 296
1325 513 1325 216 0 403 -470 531 -1335 54 -370 180 -763 279 -872 26 -29 50
-44 82 -52 160 -40 306 -361 235 -516 -37 -83 -110 -120 -236 -119 -63 0 -89
5 -123 23 -257 134 -457 668 -566 1516 -66 505 -140 799 -208 821 -87 27 -185
-329 -282 -1027 -70 -498 -150 -824 -260 -1054 -177 -371 -414 -378 -596 -16
-135 270 -255 774 -305 1284 -54 539 -145 916 -248 1025 -54 57 -110 42 -165
-45 -86 -136 -158 -448 -221 -968 -103 -834 -237 -1350 -392 -1506 -55 -56
-93 -67 -143 -44 -44 21 -103 107 -142 205 -15 38 -29 70 -31 70 -1 0 -3 -448
-3 -995 l0 -995 3645 0 3645 0 0 4015 0 4015 -3645 0 -3645 0 0 -2869z m1893
1228 c87 -5 175 -15 195 -22 33 -11 37 -17 45 -57 11 -59 4 -317 -9 -330 -7
-7 -55 -6 -142 1 -179 15 -316 10 -339 -13 -15 -16 -18 -44 -21 -205 -2 -104
1 -314 6 -468 6 -154 9 -281 8 -282 -8 -9 -225 -15 -300 -8 -84 7 -88 8 -82
28 9 34 20 815 12 879 -7 54 -9 57 -44 69 -36 12 -290 8 -408 -7 -64 -8 -65
-6 -72 143 -5 129 3 217 23 237 30 29 222 42 650 44 176 1 392 -3 478 -9z
m1331 -8 c66 -16 71 -27 74 -159 2 -64 -1 -129 -6 -143 l-10 -25 -300 4 c-286
4 -300 4 -310 -14 -29 -55 -25 -229 6 -261 15 -14 47 -15 313 -10 l297 5 6
-21 c11 -42 6 -203 -6 -219 -11 -15 -27 -15 -123 -8 -171 14 -445 12 -475 -3
-44 -22 -63 -125 -40 -209 18 -64 32 -68 235 -68 99 1 227 5 285 10 92 8 107
7 118 -8 15 -19 17 -208 2 -246 l-10 -26 -462 2 -463 3 -7 50 c-4 28 -10 237
-14 465 -6 422 5 811 26 849 10 21 72 37 165 45 95 7 660 -3 699 -13z m1083
-31 c21 -8 35 -22 43 -43 74 -212 440 -1296 440 -1304 0 -23 -75 -38 -196 -38
-169 0 -159 -11 -225 225 -45 161 -58 195 -79 209 -35 23 -255 23 -290 0 -20
-13 -36 -52 -85 -209 -59 -191 -60 -193 -95 -208 -67 -30 -360 -17 -360 15 0
17 465 1330 475 1341 7 7 34 17 61 22 63 12 270 5 311 -10z m993 6 c8 -4 82
-115 164 -247 83 -132 159 -247 170 -255 29 -20 99 -18 124 4 11 9 81 124 156
254 158 273 140 258 306 257 125 0 162 -13 172 -59 28 -130 33 -971 7 -1205
-13 -123 -20 -129 -150 -133 -109 -4 -156 1 -183 21 -17 12 -17 22 -1 187 18
192 25 464 12 523 -10 48 -37 49 -71 4 -37 -48 -109 -205 -152 -330 -27 -79
-44 -113 -61 -124 -32 -22 -117 -28 -171 -14 -48 13 -47 12 -108 171 -45 117
-102 231 -144 288 -39 54 -69 55 -83 2 -17 -63 1 -472 28 -663 5 -36 3 -39
-29 -52 -48 -20 -253 -20 -301 -1 -42 18 -40 1 -61 391 -22 408 -9 934 25 968
5 5 24 13 43 18 38 9 285 6 308 -5z m-987 -1761 c46 -19 98 -81 120 -142 31
-87 37 -183 37 -595 l0 -406 31 -26 c55 -47 126 -61 304 -61 177 0 267 17 321
60 l29 23 6 474 c3 294 9 484 16 503 48 138 124 197 234 182 79 -10 134 -68
172 -179 22 -63 22 -64 25 -1208 2 -736 -1 -1172 -7 -1222 -20 -153 -69 -245
-149 -280 -89 -40 -185 -3 -235 90 -53 97 -57 143 -57 664 0 505 -1 513 -48
544 -113 74 -406 86 -553 23 -94 -41 -87 4 -91 -564 -5 -545 -6 -559 -66 -668
-88 -162 -291 -130 -361 57 -41 111 -42 151 -39 1351 l3 1150 23 60 c12 33 34
78 50 99 52 75 153 105 235 71z m2424 -1321 c111 -19 188 -49 236 -93 70 -63
83 -127 46 -226 -44 -118 -153 -254 -433 -544 -275 -283 -305 -335 -223 -378
64 -34 290 -24 479 21 73 17 102 11 142 -29 57 -57 76 -188 36 -253 -52 -85
-119 -94 -665 -90 -383 3 -424 5 -463 22 -80 35 -118 109 -110 217 8 108 80
215 312 460 336 356 375 434 256 505 -8 5 -116 11 -240 14 -191 4 -230 8 -258
23 -115 63 -87 247 48 317 67 34 116 43 295 50 221 9 433 3 542 -16z"/>
<path d="M4090 5946 c-29 -63 -87 -262 -79 -270 2 -2 28 1 58 7 41 8 73 7 124
-2 39 -6 71 -10 72 -9 6 8 -58 239 -80 285 -34 76 -57 73 -95 -11z"/>
</g>
</svg>
